<svg xmlns="http://www.w3.org/2000/svg" version="1.1" xmlns:xlink="http://www.w3.org/1999/xlink" xmlns:svgjs="http://svgjs.dev/svgjs" width="1440" height="560" preserveAspectRatio="none" viewBox="0 0 1440 560"><g mask="url(&quot;#SvgjsMask3057&quot;)" fill="none"><rect width="1440" height="560" x="0" y="0" fill="url(&quot;#SvgjsLinearGradient3058&quot;)"></rect><path d="M74 555L73 838" stroke-width="10" stroke="url(&quot;#SvgjsLinearGradient3059&quot;)" stroke-linecap="round" class="Down"></path><path d="M559 368L558 561" stroke-width="10" stroke="url(&quot;#SvgjsLinearGradient3060&quot;)" stroke-linecap="round" class="Up"></path><path d="M35 514L34 857" stroke-width="6" stroke="url(&quot;#SvgjsLinearGradient3060&quot;)" stroke-linecap="round" class="Up"></path><path d="M1411 240L1410 407" stroke-width="6" stroke="url(&quot;#SvgjsLinearGradient3059&quot;)" stroke-linecap="round" class="Down"></path><path d="M973 297L972 575" stroke-width="8" stroke="url(&quot;#SvgjsLinearGradient3060&quot;)" stroke-linecap="round" class="Up"></path><path d="M1392 385L1391 598" stroke-width="6" stroke="url(&quot;#SvgjsLinearGradient3059&quot;)" stroke-linecap="round" class="Down"></path><path d="M336 464L335 804" stroke-width="6" stroke="url(&quot;#SvgjsLinearGradient3060&quot;)" stroke-linecap="round" class="Up"></path><path d="M192 469L191 612" stroke-width="8" stroke="url(&quot;#SvgjsLinearGradient3060&quot;)" stroke-linecap="round" class="Up"></path><path d="M994 423L993 639" stroke-width="6" stroke="url(&quot;#SvgjsLinearGradient3059&quot;)" stroke-linecap="round" class="Down"></path><path d="M402 199L401 -96" stroke-width="8" stroke="url(&quot;#SvgjsLinearGradient3060&quot;)" stroke-linecap="round" class="Up"></path><path d="M115 544L114 959" stroke-width="6" stroke="url(&quot;#SvgjsLinearGradient3059&quot;)" stroke-linecap="round" class="Down"></path><path d="M667 218L666 534" stroke-width="10" stroke="url(&quot;#SvgjsLinearGradient3059&quot;)" stroke-linecap="round" class="Down"></path><path d="M861 427L860 825" stroke-width="10" stroke="url(&quot;#SvgjsLinearGradient3060&quot;)" stroke-linecap="round" class="Up"></path><path d="M756 43L755 409" stroke-width="6" stroke="url(&quot;#SvgjsLinearGradient3059&quot;)" stroke-linecap="round" class="Down"></path><path d="M764 115L763 364" stroke-width="10" stroke="url(&quot;#SvgjsLinearGradient3060&quot;)" stroke-linecap="round" class="Up"></path><path d="M1109 417L1108 92" stroke-width="10" stroke="url(&quot;#SvgjsLinearGradient3060&quot;)" stroke-linecap="round" class="Up"></path><path d="M410 24L409 -272" stroke-width="6" stroke="url(&quot;#SvgjsLinearGradient3060&quot;)" stroke-linecap="round" class="Up"></path><path d="M932 24L931 193" stroke-width="10" stroke="url(&quot;#SvgjsLinearGradient3059&quot;)" stroke-linecap="round" class="Down"></path><path d="M312 23L311 -263" stroke-width="10" stroke="url(&quot;#SvgjsLinearGradient3060&quot;)" stroke-linecap="round" class="Up"></path><path d="M514 453L513 91" stroke-width="8" stroke="url(&quot;#SvgjsLinearGradient3060&quot;)" stroke-linecap="round" class="Up"></path><path d="M134 227L133 519" stroke-width="10" stroke="url(&quot;#SvgjsLinearGradient3059&quot;)" stroke-linecap="round" class="Down"></path><path d="M504 133L503 552" stroke-width="8" stroke="url(&quot;#SvgjsLinearGradient3059&quot;)" stroke-linecap="round" class="Down"></path><path d="M59 236L58 -62" stroke-width="10" stroke="url(&quot;#SvgjsLinearGradient3059&quot;)" stroke-linecap="round" class="Down"></path><path d="M1338 99L1337 -200" stroke-width="6" stroke="url(&quot;#SvgjsLinearGradient3059&quot;)" stroke-linecap="round" class="Down"></path><path d="M1351 455L1350 730" stroke-width="10" stroke="url(&quot;#SvgjsLinearGradient3059&quot;)" stroke-linecap="round" class="Down"></path><path d="M876 480L875 686" stroke-width="10" stroke="url(&quot;#SvgjsLinearGradient3059&quot;)" stroke-linecap="round" class="Down"></path><path d="M351 136L350 515" stroke-width="6" stroke="url(&quot;#SvgjsLinearGradient3059&quot;)" stroke-linecap="round" class="Down"></path><path d="M638 322L637 57" stroke-width="8" stroke="url(&quot;#SvgjsLinearGradient3059&quot;)" stroke-linecap="round" class="Down"></path><path d="M448 34L447 -113" stroke-width="10" stroke="url(&quot;#SvgjsLinearGradient3060&quot;)" stroke-linecap="round" class="Up"></path><path d="M1417 160L1416 -52" stroke-width="10" stroke="url(&quot;#SvgjsLinearGradient3060&quot;)" stroke-linecap="round" class="Up"></path><path d="M465 196L464 442" stroke-width="8" stroke="url(&quot;#SvgjsLinearGradient3059&quot;)" stroke-linecap="round" class="Down"></path><path d="M1321 422L1320 751" stroke-width="8" stroke="url(&quot;#SvgjsLinearGradient3060&quot;)" stroke-linecap="round" class="Up"></path><path d="M1220 465L1219 765" stroke-width="8" stroke="url(&quot;#SvgjsLinearGradient3059&quot;)" stroke-linecap="round" class="Down"></path><path d="M1416 505L1415 310" stroke-width="6" stroke="url(&quot;#SvgjsLinearGradient3060&quot;)" stroke-linecap="round" class="Up"></path><path d="M436 5L435 192" stroke-width="10" stroke="url(&quot;#SvgjsLinearGradient3059&quot;)" stroke-linecap="round" class="Down"></path><path d="M930 91L929 494" stroke-width="6" stroke="url(&quot;#SvgjsLinearGradient3059&quot;)" stroke-linecap="round" class="Down"></path></g><defs><mask id="SvgjsMask3057"><rect width="1440" height="560" fill="#ffffff"></rect></mask><linearGradient x1="50%" y1="0%" x2="50%" y2="100%" gradientUnits="userSpaceOnUse" id="SvgjsLinearGradient3058"><stop stop-color="#0e2a47" offset="0"></stop><stop stop-color="rgba(46, 105, 180, 0.99)" offset="1"></stop></linearGradient><linearGradient x1="0%" y1="0%" x2="0%" y2="100%" id="SvgjsLinearGradient3059"><stop stop-color="rgba(255, 255, 255, 0)" offset="0"></stop><stop stop-color="rgba(255, 255, 255, 1)" offset="1"></stop></linearGradient><linearGradient x1="0%" y1="100%" x2="0%" y2="0%" id="SvgjsLinearGradient3060"><stop stop-color="rgba(255, 255, 255, 0)" offset="0"></stop><stop stop-color="rgba(255, 255, 255, 1)" offset="1"></stop></linearGradient></defs></svg>